<?xml version="1.0" encoding="UTF-8" standalone="no"?>
<!DOCTYPE svg PUBLIC "-//W3C//DTD SVG 1.1//EN"
 "http://www.w3.org/Graphics/SVG/1.1/DTD/svg11.dtd">
<!-- Generated by graphviz version 2.26.3 (20100126.1600)
 -->
<!-- Title: controllers_diagram Pages: 1 -->
<svg width="511pt" height="436pt"
 viewBox="0.00 0.00 511.00 436.00" xmlns="http://www.w3.org/2000/svg" xmlns:xlink="http://www.w3.org/1999/xlink">
<g id="graph1" class="graph" transform="scale(1 1) rotate(0) translate(4 432)">
<title>controllers_diagram</title>
<polygon fill="white" stroke="white" points="-4,5 -4,-432 508,-432 508,5 -4,5"/>
<!-- _diagram_info -->
<g id="node1" class="node"><title>_diagram_info</title>
<text text-anchor="start" x="60" y="-214.3" font-family="Times Roman,serif" font-size="13.00">Controllers diagram</text>
<text text-anchor="start" x="60" y="-197.3" font-family="Times Roman,serif" font-size="13.00">Date: May 25 2015 &#45; 12:12</text>
<text text-anchor="start" x="60" y="-180.3" font-family="Times Roman,serif" font-size="13.00">Migration version: 20150519022437</text>
<text text-anchor="start" x="60" y="-163.3" font-family="Times Roman,serif" font-size="13.00">Generated by RailRoady 1.3.0</text>
<text text-anchor="start" x="60" y="-146.3" font-family="Times Roman,serif" font-size="13.00">http://railroady.prestonlee.com</text>
</g>
<!-- LocationsController -->
<g id="node2" class="node"><title>LocationsController</title>
<polyline fill="none" stroke="black" points="13,-1.5 140,-1.5 "/>
<path fill="none" stroke="black" d="M140,-1.5C146,-1.5 152,-7.5 152,-13.5"/>
<polyline fill="none" stroke="black" points="152,-13.5 152,-91.5 "/>
<path fill="none" stroke="black" d="M152,-91.5C152,-97.5 146,-103.5 140,-103.5"/>
<polyline fill="none" stroke="black" points="140,-103.5 13,-103.5 "/>
<path fill="none" stroke="black" d="M13,-103.5C7,-103.5 1,-97.5 1,-91.5"/>
<polyline fill="none" stroke="black" points="1,-91.5 1,-13.5 "/>
<path fill="none" stroke="black" d="M1,-13.5C1,-7.5 7,-1.5 13,-1.5"/>
<text text-anchor="middle" x="76.5" y="-86.9" font-family="Times Roman,serif" font-size="14.00">LocationsController</text>
<polyline fill="none" stroke="black" points="1,-77.5 152,-77.5 "/>
<text text-anchor="start" x="9" y="-60.9" font-family="Times Roman,serif" font-size="14.00">get_locations</text>
<polyline fill="none" stroke="black" points="1,-51.5 152,-51.5 "/>
<polyline fill="none" stroke="black" points="1,-27.5 152,-27.5 "/>
<text text-anchor="start" x="9" y="-10.9" font-family="Times Roman,serif" font-size="14.00">_layout</text>
</g>
<!-- DatasController -->
<g id="node3" class="node"><title>DatasController</title>
<polyline fill="none" stroke="black" points="64,-324.5 222,-324.5 "/>
<path fill="none" stroke="black" d="M222,-324.5C228,-324.5 234,-330.5 234,-336.5"/>
<polyline fill="none" stroke="black" points="234,-336.5 234,-414.5 "/>
<path fill="none" stroke="black" d="M234,-414.5C234,-420.5 228,-426.5 222,-426.5"/>
<polyline fill="none" stroke="black" points="222,-426.5 64,-426.5 "/>
<path fill="none" stroke="black" d="M64,-426.5C58,-426.5 52,-420.5 52,-414.5"/>
<polyline fill="none" stroke="black" points="52,-414.5 52,-336.5 "/>
<path fill="none" stroke="black" d="M52,-336.5C52,-330.5 58,-324.5 64,-324.5"/>
<text text-anchor="middle" x="143" y="-409.9" font-family="Times Roman,serif" font-size="14.00">DatasController</text>
<polyline fill="none" stroke="black" points="52,-400.5 234,-400.5 "/>
<text text-anchor="start" x="60" y="-383.9" font-family="Times Roman,serif" font-size="14.00">get_data_by_location_id</text>
<polyline fill="none" stroke="black" points="52,-374.5 234,-374.5 "/>
<polyline fill="none" stroke="black" points="52,-350.5 234,-350.5 "/>
<text text-anchor="start" x="60" y="-333.9" font-family="Times Roman,serif" font-size="14.00">_layout</text>
</g>
<!-- PredictionsController -->
<g id="node4" class="node"><title>PredictionsController</title>
<polyline fill="none" stroke="black" points="285,-273.5 468,-273.5 "/>
<path fill="none" stroke="black" d="M468,-273.5C474,-273.5 480,-279.5 480,-285.5"/>
<polyline fill="none" stroke="black" points="480,-285.5 480,-363.5 "/>
<path fill="none" stroke="black" d="M480,-363.5C480,-369.5 474,-375.5 468,-375.5"/>
<polyline fill="none" stroke="black" points="468,-375.5 285,-375.5 "/>
<path fill="none" stroke="black" d="M285,-375.5C279,-375.5 273,-369.5 273,-363.5"/>
<polyline fill="none" stroke="black" points="273,-363.5 273,-285.5 "/>
<path fill="none" stroke="black" d="M273,-285.5C273,-279.5 279,-273.5 285,-273.5"/>
<text text-anchor="middle" x="376.5" y="-358.9" font-family="Times Roman,serif" font-size="14.00">PredictionsController</text>
<polyline fill="none" stroke="black" points="273,-349.5 480,-349.5 "/>
<text text-anchor="start" x="281" y="-332.9" font-family="Times Roman,serif" font-size="14.00">get_prediction_by_postcode</text>
<polyline fill="none" stroke="black" points="273,-323.5 480,-323.5 "/>
<polyline fill="none" stroke="black" points="273,-299.5 480,-299.5 "/>
<text text-anchor="start" x="281" y="-282.9" font-family="Times Roman,serif" font-size="14.00">_layout</text>
</g>
<!-- ApplicationController -->
<g id="node5" class="node"><title>ApplicationController</title>
<polyline fill="none" stroke="black" points="353,-35.5 490,-35.5 "/>
<path fill="none" stroke="black" d="M490,-35.5C496,-35.5 502,-41.5 502,-47.5"/>
<polyline fill="none" stroke="black" points="502,-47.5 502,-125.5 "/>
<path fill="none" stroke="black" d="M502,-125.5C502,-131.5 496,-137.5 490,-137.5"/>
<polyline fill="none" stroke="black" points="490,-137.5 353,-137.5 "/>
<path fill="none" stroke="black" d="M353,-137.5C347,-137.5 341,-131.5 341,-125.5"/>
<polyline fill="none" stroke="black" points="341,-125.5 341,-47.5 "/>
<path fill="none" stroke="black" d="M341,-47.5C341,-41.5 347,-35.5 353,-35.5"/>
<text text-anchor="middle" x="421.5" y="-120.9" font-family="Times Roman,serif" font-size="14.00">ApplicationController</text>
<polyline fill="none" stroke="black" points="341,-111.5 502,-111.5 "/>
<text text-anchor="start" x="349" y="-94.9" font-family="Times Roman,serif" font-size="14.00">index</text>
<polyline fill="none" stroke="black" points="341,-85.5 502,-85.5 "/>
<polyline fill="none" stroke="black" points="341,-61.5 502,-61.5 "/>
<text text-anchor="start" x="349" y="-44.9" font-family="Times Roman,serif" font-size="14.00">_layout</text>
</g>
</g>
</svg>
