<?xml version="1.0" encoding="UTF-8" standalone="no"?>
<!DOCTYPE svg PUBLIC "-//W3C//DTD SVG 1.1//EN"
 "http://www.w3.org/Graphics/SVG/1.1/DTD/svg11.dtd">
<!-- Generated by graphviz version 2.26.3 (20100126.1600)
 -->
<!-- Title: models_diagram Pages: 1 -->
<svg width="437pt" height="250pt"
 viewBox="0.00 0.00 437.00 250.00" xmlns="http://www.w3.org/2000/svg" xmlns:xlink="http://www.w3.org/1999/xlink">
<g id="graph1" class="graph" transform="scale(1 1) rotate(0) translate(4 246)">
<title>models_diagram</title>
<polygon fill="white" stroke="white" points="-4,5 -4,-246 434,-246 434,5 -4,5"/>
<!-- _diagram_info -->
<g id="node1" class="node"><title>_diagram_info</title>
<text text-anchor="start" x="8" y="-225.8" font-family="Times Roman,serif" font-size="13.00">Models diagram</text>
<text text-anchor="start" x="8" y="-208.8" font-family="Times Roman,serif" font-size="13.00">Date: May 25 2015 &#45; 12:12</text>
<text text-anchor="start" x="8" y="-191.8" font-family="Times Roman,serif" font-size="13.00">Migration version: 20150519022437</text>
<text text-anchor="start" x="8" y="-174.8" font-family="Times Roman,serif" font-size="13.00">Generated by RailRoady 1.3.0</text>
<text text-anchor="start" x="8" y="-157.8" font-family="Times Roman,serif" font-size="13.00">http://railroady.prestonlee.com</text>
</g>
<!-- Postcode -->
<g id="node2" class="node"><title>Postcode</title>
<ellipse fill="none" stroke="black" cx="322" cy="-195" rx="53.9477" ry="18.3848"/>
<text text-anchor="middle" x="322" y="-191.4" font-family="Times Roman,serif" font-size="14.00">Postcode</text>
</g>
<!-- Location -->
<g id="node4" class="node"><title>Location</title>
<ellipse fill="none" stroke="black" cx="322" cy="-93" rx="53.033" ry="18.3848"/>
<text text-anchor="middle" x="322" y="-89.4" font-family="Times Roman,serif" font-size="14.00">Location</text>
</g>
<!-- Postcode&#45;&gt;Location -->
<g id="edge2" class="edge"><title>Postcode&#45;&gt;Location</title>
<path fill="none" stroke="#1d008e" d="M322,-168.015C322,-153.835 322,-136.445 322,-121.98"/>
<ellipse fill="none" stroke="#1d008e" cx="322" cy="-172.292" rx="4" ry="4"/>
<polygon fill="#1d008e" stroke="#1d008e" points="322,-121.59 326.5,-111.59 322,-116.59 322,-111.59 322,-111.59 322,-111.59 322,-116.59 317.5,-111.59 322,-121.59 322,-121.59"/>
</g>
<!-- Prediction -->
<g id="node3" class="node"><title>Prediction</title>
<ellipse fill="none" stroke="black" cx="260" cy="-19" rx="60.8112" ry="18.3848"/>
<text text-anchor="middle" x="260" y="-15.4" font-family="Times Roman,serif" font-size="14.00">Prediction</text>
</g>
<!-- Location&#45;&gt;Prediction -->
<g id="edge6" class="edge"><title>Location&#45;&gt;Prediction</title>
<path fill="none" stroke="#b3cc64" d="M301.778,-68.8635C295.397,-61.248 288.321,-52.8022 281.833,-45.0589"/>
<ellipse fill="none" stroke="#b3cc64" cx="304.423" cy="-72.0206" rx="4.00002" ry="4.00002"/>
<polygon fill="#b3cc64" stroke="#b3cc64" points="281.507,-44.6701 278.535,-34.1149 278.296,-40.8375 275.085,-37.0049 275.085,-37.0049 275.085,-37.0049 278.296,-40.8375 271.636,-39.8949 281.507,-44.6701 281.507,-44.6701"/>
</g>
<!-- Datum -->
<g id="node5" class="node"><title>Datum</title>
<ellipse fill="none" stroke="black" cx="384" cy="-19" rx="44.7575" ry="18.3848"/>
<text text-anchor="middle" x="384" y="-15.4" font-family="Times Roman,serif" font-size="14.00">Datum</text>
</g>
<!-- Location&#45;&gt;Datum -->
<g id="edge4" class="edge"><title>Location&#45;&gt;Datum</title>
<path fill="none" stroke="#96ddbc" d="M342.303,-68.7678C348.853,-60.9502 356.129,-52.2659 362.745,-44.3686"/>
<ellipse fill="none" stroke="#96ddbc" cx="339.577" cy="-72.0206" rx="4.00002" ry="4.00002"/>
<polygon fill="#96ddbc" stroke="#96ddbc" points="362.921,-44.1583 372.793,-39.383 366.133,-40.3256 369.344,-36.493 369.344,-36.493 369.344,-36.493 366.133,-40.3256 365.894,-33.603 362.921,-44.1583 362.921,-44.1583"/>
</g>
</g>
</svg>
