<?xml version="1.0" encoding="UTF-8" standalone="no"?>
<!DOCTYPE svg PUBLIC "-//W3C//DTD SVG 1.1//EN"
 "http://www.w3.org/Graphics/SVG/1.1/DTD/svg11.dtd">
<!-- Generated by graphviz version 2.26.3 (20100126.1600)
 -->
<!-- Title: models_diagram Pages: 1 -->
<svg width="531pt" height="728pt"
 viewBox="0.00 0.00 531.00 728.00" xmlns="http://www.w3.org/2000/svg" xmlns:xlink="http://www.w3.org/1999/xlink">
<g id="graph1" class="graph" transform="scale(1 1) rotate(0) translate(4 724)">
<title>models_diagram</title>
<polygon fill="white" stroke="white" points="-4,5 -4,-724 528,-724 528,5 -4,5"/>
<!-- _diagram_info -->
<g id="node1" class="node"><title>_diagram_info</title>
<text text-anchor="start" x="8" y="-696.8" font-family="Times Roman,serif" font-size="13.00">Models diagram</text>
<text text-anchor="start" x="8" y="-679.8" font-family="Times Roman,serif" font-size="13.00">Date: May 25 2015 &#45; 12:12</text>
<text text-anchor="start" x="8" y="-662.8" font-family="Times Roman,serif" font-size="13.00">Migration version: 20150519022437</text>
<text text-anchor="start" x="8" y="-645.8" font-family="Times Roman,serif" font-size="13.00">Generated by RailRoady 1.3.0</text>
<text text-anchor="start" x="8" y="-628.8" font-family="Times Roman,serif" font-size="13.00">http://railroady.prestonlee.com</text>
</g>
<!-- Postcode -->
<g id="node2" class="node"><title>Postcode</title>
<polyline fill="none" stroke="black" points="279.5,-613 420.5,-613 "/>
<path fill="none" stroke="black" d="M420.5,-613C426.5,-613 432.5,-619 432.5,-625"/>
<polyline fill="none" stroke="black" points="432.5,-625 432.5,-707 "/>
<path fill="none" stroke="black" d="M432.5,-707C432.5,-713 426.5,-719 420.5,-719"/>
<polyline fill="none" stroke="black" points="420.5,-719 279.5,-719 "/>
<path fill="none" stroke="black" d="M279.5,-719C273.5,-719 267.5,-713 267.5,-707"/>
<polyline fill="none" stroke="black" points="267.5,-707 267.5,-625 "/>
<path fill="none" stroke="black" d="M267.5,-625C267.5,-619 273.5,-613 279.5,-613"/>
<text text-anchor="middle" x="350" y="-702.4" font-family="Times Roman,serif" font-size="14.00">Postcode</text>
<polyline fill="none" stroke="black" points="267.5,-693 432.5,-693 "/>
<text text-anchor="start" x="275.5" y="-676.4" font-family="Times Roman,serif" font-size="14.00">id :integer</text>
<text text-anchor="start" x="275.5" y="-658.4" font-family="Times Roman,serif" font-size="14.00">postcode :integer</text>
<text text-anchor="start" x="275.5" y="-640.4" font-family="Times Roman,serif" font-size="14.00">created_at :datetime</text>
<text text-anchor="start" x="275.5" y="-622.4" font-family="Times Roman,serif" font-size="14.00">updated_at :datetime</text>
</g>
<!-- Location -->
<g id="node4" class="node"><title>Location</title>
<polyline fill="none" stroke="black" points="279.5,-415 420.5,-415 "/>
<path fill="none" stroke="black" d="M420.5,-415C426.5,-415 432.5,-421 432.5,-427"/>
<polyline fill="none" stroke="black" points="432.5,-427 432.5,-563 "/>
<path fill="none" stroke="black" d="M432.5,-563C432.5,-569 426.5,-575 420.5,-575"/>
<polyline fill="none" stroke="black" points="420.5,-575 279.5,-575 "/>
<path fill="none" stroke="black" d="M279.5,-575C273.5,-575 267.5,-569 267.5,-563"/>
<polyline fill="none" stroke="black" points="267.5,-563 267.5,-427 "/>
<path fill="none" stroke="black" d="M267.5,-427C267.5,-421 273.5,-415 279.5,-415"/>
<text text-anchor="middle" x="350" y="-558.4" font-family="Times Roman,serif" font-size="14.00">Location</text>
<polyline fill="none" stroke="black" points="267.5,-549 432.5,-549 "/>
<text text-anchor="start" x="275.5" y="-532.4" font-family="Times Roman,serif" font-size="14.00">id :integer</text>
<text text-anchor="start" x="275.5" y="-514.4" font-family="Times Roman,serif" font-size="14.00">station :string</text>
<text text-anchor="start" x="275.5" y="-496.4" font-family="Times Roman,serif" font-size="14.00">lat :float</text>
<text text-anchor="start" x="275.5" y="-478.4" font-family="Times Roman,serif" font-size="14.00">lon :float</text>
<text text-anchor="start" x="275.5" y="-460.4" font-family="Times Roman,serif" font-size="14.00">created_at :datetime</text>
<text text-anchor="start" x="275.5" y="-442.4" font-family="Times Roman,serif" font-size="14.00">updated_at :datetime</text>
<text text-anchor="start" x="275.5" y="-424.4" font-family="Times Roman,serif" font-size="14.00">postcode_id :integer</text>
</g>
<!-- Postcode&#45;&gt;Location -->
<g id="edge2" class="edge"><title>Postcode&#45;&gt;Location</title>
<path fill="none" stroke="#e06a71" d="M350,-604.563C350,-598.294 350,-591.838 350,-585.343"/>
<ellipse fill="none" stroke="#e06a71" cx="350" cy="-608.832" rx="4" ry="4"/>
<polygon fill="#e06a71" stroke="#e06a71" points="350,-585.129 354.5,-575.129 350,-580.129 350,-575.129 350,-575.129 350,-575.129 350,-580.129 345.5,-575.129 350,-585.129 350,-585.129"/>
</g>
<!-- Prediction -->
<g id="node3" class="node"><title>Prediction</title>
<polyline fill="none" stroke="black" points="188.5,-100 329.5,-100 "/>
<path fill="none" stroke="black" d="M329.5,-100C335.5,-100 341.5,-106 341.5,-112"/>
<polyline fill="none" stroke="black" points="341.5,-112 341.5,-266 "/>
<path fill="none" stroke="black" d="M341.5,-266C341.5,-272 335.5,-278 329.5,-278"/>
<polyline fill="none" stroke="black" points="329.5,-278 188.5,-278 "/>
<path fill="none" stroke="black" d="M188.5,-278C182.5,-278 176.5,-272 176.5,-266"/>
<polyline fill="none" stroke="black" points="176.5,-266 176.5,-112 "/>
<path fill="none" stroke="black" d="M176.5,-112C176.5,-106 182.5,-100 188.5,-100"/>
<text text-anchor="middle" x="259" y="-261.4" font-family="Times Roman,serif" font-size="14.00">Prediction</text>
<polyline fill="none" stroke="black" points="176.5,-252 341.5,-252 "/>
<text text-anchor="start" x="184.5" y="-235.4" font-family="Times Roman,serif" font-size="14.00">id :integer</text>
<text text-anchor="start" x="184.5" y="-217.4" font-family="Times Roman,serif" font-size="14.00">rainValue :float</text>
<text text-anchor="start" x="184.5" y="-199.4" font-family="Times Roman,serif" font-size="14.00">rainProb :float</text>
<text text-anchor="start" x="184.5" y="-181.4" font-family="Times Roman,serif" font-size="14.00">tempValue :float</text>
<text text-anchor="start" x="184.5" y="-163.4" font-family="Times Roman,serif" font-size="14.00">tempProb :float</text>
<text text-anchor="start" x="184.5" y="-145.4" font-family="Times Roman,serif" font-size="14.00">created_at :datetime</text>
<text text-anchor="start" x="184.5" y="-127.4" font-family="Times Roman,serif" font-size="14.00">updated_at :datetime</text>
<text text-anchor="start" x="184.5" y="-109.4" font-family="Times Roman,serif" font-size="14.00">location_id :integer</text>
</g>
<!-- Location&#45;&gt;Prediction -->
<g id="edge6" class="edge"><title>Location&#45;&gt;Prediction</title>
<path fill="none" stroke="#26fceb" d="M323.794,-406.879C312.706,-369.595 299.742,-326.002 288.336,-287.647"/>
<ellipse fill="none" stroke="#26fceb" cx="324.951" cy="-410.768" rx="4.00001" ry="4.00001"/>
<polygon fill="#26fceb" stroke="#26fceb" points="288.322,-287.6 289.785,-276.733 286.897,-282.808 285.472,-278.015 285.472,-278.015 285.472,-278.015 286.897,-282.808 281.159,-279.298 288.322,-287.6 288.322,-287.6"/>
</g>
<!-- Datum -->
<g id="node5" class="node"><title>Datum</title>
<polyline fill="none" stroke="black" points="370.5,-1 511.5,-1 "/>
<path fill="none" stroke="black" d="M511.5,-1C517.5,-1 523.5,-7 523.5,-13"/>
<polyline fill="none" stroke="black" points="523.5,-13 523.5,-365 "/>
<path fill="none" stroke="black" d="M523.5,-365C523.5,-371 517.5,-377 511.5,-377"/>
<polyline fill="none" stroke="black" points="511.5,-377 370.5,-377 "/>
<path fill="none" stroke="black" d="M370.5,-377C364.5,-377 358.5,-371 358.5,-365"/>
<polyline fill="none" stroke="black" points="358.5,-365 358.5,-13 "/>
<path fill="none" stroke="black" d="M358.5,-13C358.5,-7 364.5,-1 370.5,-1"/>
<text text-anchor="middle" x="441" y="-360.4" font-family="Times Roman,serif" font-size="14.00">Datum</text>
<polyline fill="none" stroke="black" points="358.5,-351 523.5,-351 "/>
<text text-anchor="start" x="366.5" y="-334.4" font-family="Times Roman,serif" font-size="14.00">id :integer</text>
<text text-anchor="start" x="366.5" y="-316.4" font-family="Times Roman,serif" font-size="14.00">windDirection :string</text>
<text text-anchor="start" x="366.5" y="-298.4" font-family="Times Roman,serif" font-size="14.00">windSpeed :float</text>
<text text-anchor="start" x="366.5" y="-280.4" font-family="Times Roman,serif" font-size="14.00">created_at :datetime</text>
<text text-anchor="start" x="366.5" y="-262.4" font-family="Times Roman,serif" font-size="14.00">updated_at :datetime</text>
<text text-anchor="start" x="366.5" y="-244.4" font-family="Times Roman,serif" font-size="14.00">rainSince9am :float</text>
<text text-anchor="start" x="366.5" y="-226.4" font-family="Times Roman,serif" font-size="14.00">source :string</text>
<text text-anchor="start" x="366.5" y="-208.4" font-family="Times Roman,serif" font-size="14.00">obsTime :string</text>
<text text-anchor="start" x="366.5" y="-190.4" font-family="Times Roman,serif" font-size="14.00">temp :float</text>
<text text-anchor="start" x="366.5" y="-172.4" font-family="Times Roman,serif" font-size="14.00">dewPoint :float</text>
<text text-anchor="start" x="366.5" y="-154.4" font-family="Times Roman,serif" font-size="14.00">wetBulb :float</text>
<text text-anchor="start" x="366.5" y="-136.4" font-family="Times Roman,serif" font-size="14.00">humidity :float</text>
<text text-anchor="start" x="366.5" y="-118.4" font-family="Times Roman,serif" font-size="14.00">pressure :float</text>
<text text-anchor="start" x="366.5" y="-100.4" font-family="Times Roman,serif" font-size="14.00">windBearing :float</text>
<text text-anchor="start" x="366.5" y="-82.4" font-family="Times Roman,serif" font-size="14.00">precipIntense :float</text>
<text text-anchor="start" x="366.5" y="-64.4" font-family="Times Roman,serif" font-size="14.00">precipProb :float</text>
<text text-anchor="start" x="366.5" y="-46.4" font-family="Times Roman,serif" font-size="14.00">condition :string</text>
<text text-anchor="start" x="366.5" y="-28.4" font-family="Times Roman,serif" font-size="14.00">cloudCover :float</text>
<text text-anchor="start" x="366.5" y="-10.4" font-family="Times Roman,serif" font-size="14.00">location_id :integer</text>
</g>
<!-- Location&#45;&gt;Datum -->
<g id="edge4" class="edge"><title>Location&#45;&gt;Datum</title>
<path fill="none" stroke="#95dbcc" d="M376.256,-406.712C378.156,-400.32 380.112,-393.744 382.105,-387.041"/>
<ellipse fill="none" stroke="#95dbcc" cx="375.049" cy="-410.768" rx="4.00001" ry="4.00001"/>
<polygon fill="#95dbcc" stroke="#95dbcc" points="382.2,-386.722 389.364,-378.42 383.626,-381.93 385.051,-377.137 385.051,-377.137 385.051,-377.137 383.626,-381.93 380.737,-375.854 382.2,-386.722 382.2,-386.722"/>
</g>
</g>
</svg>
